<?xml version="1.0" standalone="no"?><!DOCTYPE svg PUBLIC "-//W3C//DTD SVG 1.1//EN" "http://www.w3.org/Graphics/SVG/1.1/DTD/svg11.dtd"><svg t="1605930797917" class="icon" viewBox="0 0 1024 1024" version="1.1" xmlns="http://www.w3.org/2000/svg" p-id="9303" xmlns:xlink="http://www.w3.org/1999/xlink" width="200" height="200"><defs><style type="text/css"></style></defs><path d="M512 512m-512 0a512 512 0 1 0 1024 0 512 512 0 1 0-1024 0Z" fill="#EAF2F9" p-id="9304"></path><path d="M716.8 396.8m-64 0a64 64 0 1 0 128 0 64 64 0 1 0-128 0Z" fill="#3C1D1B" p-id="9305"></path><path d="M307.2 396.8m-64 0a64 64 0 1 0 128 0 64 64 0 1 0-128 0Z" fill="#3C1D1B" p-id="9306"></path><path d="M460.8 409.6m51.2 0l0 0q51.2 0 51.2 51.2l0 128q0 51.2-51.2 51.2l0 0q-51.2 0-51.2-51.2l0-128q0-51.2 51.2-51.2Z" fill="#AD7A75" p-id="9307"></path><path d="M380.544 719.5264c11.0976 17.3824 119.4624 148.352 261.12 14.4256 29.568-35.712-5.9904-62.1184-34.2016-32.6144-55.8848 57.664-139.9424 64.3072-194.304-8.32-19.9296-30.4896-60.1728-9.2288-32.6144 26.5088z" fill="#FC5C50" p-id="9308"></path></svg>