<?xml version="1.0" standalone="no"?><!DOCTYPE svg PUBLIC "-//W3C//DTD SVG 1.1//EN" "http://www.w3.org/Graphics/SVG/1.1/DTD/svg11.dtd"><svg t="1603101608566" class="icon" viewBox="0 0 1024 1024" version="1.1" xmlns="http://www.w3.org/2000/svg" p-id="4386" xmlns:xlink="http://www.w3.org/1999/xlink" width="200" height="200"><defs><style type="text/css"></style></defs><path d="M512 0C229.76 0 0 229.76 0 512s229.76 512 512 512 512-229.76 512-512-229.76-512-512-512z m0 960c-247.04 0-448-200.96-448-448s200.96-448 448-448 448 200.96 448 448-200.96 448-448 448z" p-id="4387"></path><path d="M320 384m-64 0a64 64 0 1 0 128 0 64 64 0 1 0-128 0Z" p-id="4388"></path><path d="M704 384m-64 0a64 64 0 1 0 128 0 64 64 0 1 0-128 0Z" p-id="4389"></path><path d="M512 704c-62.72 0-121.6-30.72-157.44-82.56l-52.48 36.48C349.44 727.04 428.16 768 512 768s161.92-40.96 209.92-109.44l-52.48-36.48C633.6 673.28 574.72 704 512 704z" p-id="4390" ></path></svg>