<?xml version="1.0" standalone="no"?><!DOCTYPE svg PUBLIC "-//W3C//DTD SVG 1.1//EN" "http://www.w3.org/Graphics/SVG/1.1/DTD/svg11.dtd"><svg t="1603699394620" class="icon" viewBox="0 0 1024 1024" version="1.1" xmlns="http://www.w3.org/2000/svg" p-id="8938" xmlns:xlink="http://www.w3.org/1999/xlink" width="200" height="200"><defs><style type="text/css"></style></defs><path d="M265.904 472.494l83.666 49.082 56.615 29.741a66734.382 66734.382 0 0 1 54.546 27.588c2.183 1.105 0.292-1.538 4.725 18.077 4.433 19.615 0.903 17.848-2.028 18.295-2.93 0.448-15.364-3.844-15.28-3.648 0.083 0.197-18.985-6.428-18.9-6.231 0.084 0.195-22.484-7.662-22.543-8.337-30.974-16.556-31.501-15.91-48.926-28.973-17.424-13.063-30.047-22.464-45.904-37.94-21.196-20.164-51.82-53.143-51.88-53.818" fill="#515151" p-id="8939"></path><path d="M456.058 607.066q-0.526 1.58-6.524-0.263t-16.471-5.998l-10.445-4.71q-22.995-10.444-45.464-25.6-3.657-2.603-21.416-16.47t-19.865-14.892q-34.99 53.802-70.01 94.556-42.305 49.62-54.856 57.46-2.077 1.053-10.181 2.077t-9.655 0q3.13-2.077 42.831-48.068 10.971-12.551 44.675-60.093t41.017-61.643q8.894-15.681 26.653-51.462t18.812-40.49q-4.184-0.527-57.46 17.231-4.184 1.054-14.365 3.92t-18.022 4.974-8.894 2.604q-1.053 1.053-1.053 5.5t-0.526 4.974q-2.604 5.237-16.209 7.84-12.024 3.658-24.546 0-9.39-2.077-14.628-10.97-2.077-3.13-2.604-12.025 3.13-1.053 12.815-2.604t15.418-3.13q30.31-8.367 54.856-16.706 52.251-18.285 53.275-18.285 5.237-1.053 22.47-10.181t22.995-11.234q4.71-1.58 11.234-4.184t7.578-2.867 3.13 0.263q1.053 6.26-0.527 17.232 0 1.053-6.524 14.102t-13.838 27.94-8.894 17.495q-13.048 26.126-40.227 68.43l33.44 14.629q6.26 3.13 38.91 16.705t35.255 14.628q2.077 0.527 5.5 13.312t2.34 15.945v0.058zM348.951 353.15q1.58 7.84-2.078 14.628-6.26 12.025-26.126 19.865-15.68 6.261-31.333 6.261-13.575-1.58-25.6-13.575-7.314-7.84-9.39-21.415l0.526-1.58q1.58 1.58 10.181 2.604t13.838 0 30.31-8.368q18.812-6.26 28.73-7.314 8.894 0 10.97 8.894h-0.028z m364.651 67.407l32.914 118.605L673.9 517.22l39.701-96.663zM134.735 838.513L497.31 717.304V178.138L134.735 299.874v538.64z m648.351-165.62l53.276 16.208-94.557-343.236-52.252-16.208L576.712 609.67l53.275 16.208 23.523-57.46 110.238 33.967 19.338 70.508z m-262.78-502.595l299.35 96.136V67.9l-299.35 102.398z m162.49 691.182l82.531 6.787-28.203 83.586-20.889-34.494q-67.904 43.358-144.204 56.436-30.31 6.26-47.542 6.26h-43.885q-41.28 0-104.24-20.362t-95.873-44.41q-4.184-3.658-4.184-8.368 0-4.184 2.604-7.051t6.787-2.867q2.078 0 9.392 3.92t15.944 8.63 10.708 5.735q38.15 19.339 83.322 32.124t82.299 12.814q49.618 0 87.242-7.577t82.035-26.39q7.84-3.657 15.945-8.104t17.758-9.918 14.892-8.63l-22.44-38.121z m234.05-563.683v563.712L512.494 732.986q-7.314 3.13-195.9 66.616T124.348 863.09q-6.787 0-9.39-6.788 0-0.526-0.528-1.58V291.536q1.58-4.71 2.078-5.237 2.603-3.13 10.444-5.734 55.383-18.285 77.851-26.126V53.828l291.511 103.45q1.053 0 83.849-28.73T745.258 71.85t84.375-27.94q10.444 0 10.444 10.971v218.37l76.77 24.546z" fill="#515151" p-id="8940"></path></svg>